<svg xmlns="http://www.w3.org/2000/svg" width="300" height="183" viewBox="0 0 300 183">
<g>
<path d="M 228.80 162.35 C222.95,166.05 215.88,164.90 211.10,159.46 C207.11,154.91 206.42,145.97 209.59,139.83 C213.95,131.40 227.99,131.01 232.97,139.19 C237.21,146.14 235.00,158.42 228.80,162.35 ZM 68.00 157.50 C68.00,162.49 67.67,164.00 66.56,164.00 C65.77,164.00 64.88,163.61 64.59,163.14 C64.30,162.67 64.06,155.92 64.06,148.14 L 64.07 134.00 L 72.60 134.00 C82.28,134.00 84.37,134.77 85.79,138.82 C87.15,142.74 86.22,146.68 83.40,148.90 L 81.04 150.76 L 84.00 156.13 C87.23,161.98 87.68,164.00 85.75,164.00 C85.06,164.00 83.37,161.87 82.00,159.26 C78.41,152.47 76.64,151.00 72.00,151.00 L 68.00 151.00 ZM 245.00 157.50 C245.00,162.61 244.68,164.00 243.50,164.00 C242.23,164.00 242.00,161.67 242.00,149.00 L 242.00 134.00 L 250.93 134.00 C259.38,134.00 259.96,134.14 261.93,136.63 C265.60,141.30 264.00,148.45 258.88,150.23 C257.75,150.62 257.80,151.06 259.13,152.60 C260.72,154.44 265.00,162.37 265.00,163.46 C265.00,163.76 264.34,164.00 263.53,164.00 C262.71,164.00 261.31,162.54 260.41,160.75 C259.50,158.96 257.67,156.04 256.33,154.25 C254.22,151.43 253.30,151.00 249.45,151.00 L 245.00 151.00 ZM 214.96 158.96 C217.89,161.89 224.93,161.77 227.76,158.75 C234.55,151.50 232.10,138.05 223.70,136.47 C212.49,134.37 206.30,150.30 214.96,158.96 ZM 29.73 162.39 C25.05,165.36 14.74,164.80 11.95,161.43 C10.14,159.26 11.45,158.61 15.10,159.88 C16.86,160.50 20.25,161.00 22.63,161.00 C26.11,161.00 27.27,160.52 28.55,158.57 C30.96,154.88 29.13,152.46 22.77,150.97 C12.63,148.59 9.45,145.24 11.61,139.22 C12.66,136.29 18.29,133.00 22.27,133.00 C26.38,133.00 32.00,135.63 32.00,137.56 C32.00,138.75 31.51,139.01 30.25,138.47 C21.52,134.76 15.74,136.01 15.19,141.75 C14.84,145.36 15.00,145.46 25.49,148.67 C30.24,150.12 31.67,151.04 32.39,153.11 C33.60,156.63 32.45,160.67 29.73,162.39 ZM 113.00 162.50 C113.00,163.73 111.28,164.00 103.52,164.00 C102.93,164.00 102.38,164.00 101.86,164.01 C97.97,164.02 95.74,164.03 94.48,162.93 C92.78,161.43 92.88,157.89 93.11,149.55 C93.13,148.71 93.16,147.84 93.18,146.91 L 93.50 134.50 L 103.35 134.21 C111.02,133.99 113.10,134.21 112.77,135.21 C112.48,136.08 109.82,136.60 104.67,136.79 L 97.00 137.08 L 97.00 147.00 L 104.50 147.00 C110.50,147.00 112.00,147.30 112.00,148.50 C112.00,149.70 110.50,150.00 104.50,150.00 L 97.00 150.00 L 97.00 161.00 L 105.00 161.00 C111.44,161.00 113.00,161.29 113.00,162.50 ZM 138.00 162.50 C138.00,163.73 136.28,164.00 128.50,164.00 L 119.00 164.00 L 119.00 134.00 L 128.58 134.00 C135.80,134.00 138.06,134.31 137.75,135.25 C137.48,136.07 134.70,136.60 129.67,136.79 L 122.00 137.08 L 122.00 147.00 L 129.50 147.00 C135.50,147.00 137.00,147.30 137.00,148.50 C137.00,149.70 135.50,150.00 129.50,150.00 L 122.00 150.00 L 122.00 161.00 L 130.00 161.00 C136.44,161.00 138.00,161.29 138.00,162.50 ZM 201.25 162.33 C197.32,164.31 193.95,164.85 190.48,164.05 C183.01,162.32 179.45,157.25 179.56,148.50 C179.68,138.83 184.58,133.50 193.37,133.50 C199.06,133.50 205.05,136.35 203.21,138.19 C202.55,138.85 201.53,138.82 200.17,138.09 C199.05,137.49 195.93,137.00 193.24,137.00 C189.35,137.00 187.88,137.50 186.06,139.44 C183.26,142.42 182.29,149.33 183.97,154.40 C185.99,160.52 191.13,162.03 201.25,159.46 C203.00,159.02 204.00,159.17 204.00,159.86 C204.00,160.46 202.76,161.57 201.25,162.33 ZM 290.00 162.50 C290.00,163.72 288.35,164.00 281.17,164.00 C276.31,164.00 272.03,163.70 271.67,163.33 C271.30,162.97 271.00,156.22 271.00,148.33 L 271.00 134.00 L 280.58 134.00 C287.80,134.00 290.06,134.31 289.75,135.25 C289.48,136.07 286.70,136.60 281.67,136.79 L 274.00 137.08 L 274.00 146.92 L 281.51 147.21 C285.65,147.37 289.01,147.95 289.01,148.50 C289.01,149.05 285.65,149.63 281.51,149.79 L 274.00 150.08 L 274.00 161.00 L 282.00 161.00 C288.44,161.00 290.00,161.29 290.00,162.50 ZM 245.00 136.91 L 245.00 148.00 L 251.48 148.00 C257.36,148.00 258.11,147.76 259.67,145.38 C261.20,143.04 261.23,142.50 259.91,140.13 C258.57,137.75 257.79,137.47 251.72,137.20 ZM 68.00 137.00 L 68.00 148.00 L 73.93 148.00 C80.64,148.00 83.00,146.48 83.00,142.13 C83.00,138.02 81.27,137.00 74.30,137.00 ZM 154.00 150.55 C154.00,161.84 153.76,164.00 152.50,164.00 C151.24,164.00 151.00,161.83 151.00,150.50 L 151.00 137.00 L 146.58 137.00 C141.69,137.00 139.00,136.25 139.00,134.89 C139.00,134.40 144.89,134.00 152.08,134.00 C162.10,134.00 165.07,134.29 164.75,135.25 C164.51,135.98 162.19,136.63 159.17,136.80 L 154.00 137.10 ZM 49.00 150.55 C49.00,161.84 48.76,164.00 47.50,164.00 C46.24,164.00 46.00,161.83 46.00,150.50 L 46.00 137.00 L 41.58 137.00 C36.69,137.00 34.00,136.25 34.00,134.89 C34.00,134.40 39.89,134.00 47.08,134.00 C57.10,134.00 60.07,134.29 59.75,135.25 C59.51,135.98 57.19,136.63 54.17,136.80 L 49.00 137.10 Z" fill="rgb(7,7,7)"/>
<path d="M 160.89 112.09 C159.47,112.99 156.24,113.07 152.31,112.30 C151.05,112.06 149.94,110.95 149.69,109.69 L 149.25 107.50 L 148.51 109.75 C147.78,111.97 145.59,112.77 144.61,111.18 C143.76,109.80 147.62,98.48 148.85,98.75 C149.48,98.89 150.00,98.48 150.00,97.85 C150.00,95.90 145.77,85.00 145.02,85.00 C144.62,85.00 142.44,86.35 140.17,87.99 C134.53,92.08 130.61,99.87 131.27,105.70 C131.54,108.08 131.39,110.26 130.93,110.54 C130.48,110.82 128.06,110.54 125.56,109.91 L 121.01 108.77 L 121.67 104.63 C122.04,102.36 123.16,99.15 124.16,97.50 C126.66,93.41 126.47,91.34 123.35,88.45 L 120.71 86.00 L 129.10 85.98 C133.72,85.98 138.18,85.54 139.00,85.01 C140.04,84.35 139.40,84.23 136.91,84.63 C134.94,84.95 130.80,84.68 127.71,84.04 C117.74,81.97 115.00,85.86 115.00,102.12 L 115.00 112.00 L 107.39 112.00 L 107.42 100.75 C107.44,94.56 106.88,86.57 106.19,83.00 C103.39,68.61 103.47,65.90 106.89,58.73 C108.62,55.11 111.36,51.03 112.99,49.67 C116.45,46.75 133.17,40.06 138.90,39.29 C143.26,38.70 147.02,35.46 149.81,29.89 C152.21,25.10 155.21,24.37 166.25,25.89 C171.34,26.58 177.17,27.64 179.20,28.22 C184.02,29.61 188.01,27.34 187.98,23.23 C187.96,19.35 187.03,18.39 182.52,17.56 C176.81,16.50 175.00,15.27 175.00,12.43 C175.00,9.48 177.51,8.21 180.12,9.84 C181.14,10.48 182.89,11.00 184.02,11.00 C187.86,11.00 192.95,13.88 194.97,17.19 C198.94,23.69 197.21,32.44 190.48,39.89 C187.38,43.32 186.14,44.00 182.99,44.00 C178.42,44.00 177.75,45.31 179.67,50.55 C182.73,58.92 182.94,60.00 181.49,60.00 C180.74,60.00 179.86,59.58 179.54,59.06 C178.71,57.73 169.40,57.95 167.75,59.35 C166.38,60.50 163.57,71.46 162.47,80.00 C162.15,82.47 161.31,85.85 160.60,87.50 L 159.32 90.50 L 157.16 87.00 C154.52,82.70 154.42,84.26 156.85,91.78 C161.15,105.04 162.37,111.15 160.89,112.09 ZM 142.59 57.84 C142.99,59.14 145.50,59.04 154.25,57.37 C159.27,56.41 157.10,55.50 150.59,55.83 L 144.18 56.16 L 143.40 49.33 C142.65,42.69 142.60,42.61 141.91,46.50 C141.26,50.15 141.51,54.36 142.59,57.84 Z" fill="rgb(10,192,157)"/>
<path d="M 0.00 91.50 L 0.00 0.00 L 150.00 0.00 L 300.00 0.00 L 300.00 91.50 L 300.00 183.00 L 150.00 183.00 L 0.00 183.00 L 0.00 91.50 ZM 29.73 162.39 C32.45,160.67 33.60,156.63 32.39,153.11 C31.67,151.04 30.24,150.12 25.49,148.67 C15.00,145.46 14.84,145.36 15.19,141.75 C15.74,136.01 21.52,134.76 30.25,138.47 C31.51,139.01 32.00,138.75 32.00,137.56 C32.00,135.63 26.38,133.00 22.27,133.00 C18.29,133.00 12.66,136.29 11.61,139.22 C9.45,145.24 12.63,148.59 22.77,150.97 C29.13,152.46 30.96,154.88 28.55,158.57 C27.27,160.52 26.11,161.00 22.63,161.00 C20.25,161.00 16.86,160.50 15.10,159.88 C11.45,158.61 10.14,159.26 11.95,161.43 C14.74,164.80 25.05,165.36 29.73,162.39 ZM 201.25 162.33 C202.76,161.57 204.00,160.46 204.00,159.86 C204.00,159.17 203.00,159.02 201.25,159.46 C191.13,162.03 185.99,160.52 183.97,154.40 C182.29,149.33 183.26,142.42 186.06,139.44 C187.88,137.50 189.35,137.00 193.24,137.00 C195.93,137.00 199.05,137.49 200.17,138.09 C201.53,138.82 202.55,138.85 203.21,138.19 C205.05,136.35 199.06,133.50 193.37,133.50 C184.58,133.50 179.68,138.83 179.56,148.50 C179.45,157.25 183.01,162.32 190.48,164.05 C193.95,164.85 197.32,164.31 201.25,162.33 ZM 228.80 162.35 C235.00,158.42 237.21,146.14 232.97,139.19 C227.99,131.01 213.95,131.40 209.59,139.83 C206.42,145.97 207.11,154.91 211.10,159.46 C215.88,164.90 222.95,166.05 228.80,162.35 ZM 49.00 150.55 L 49.00 137.10 L 54.17 136.80 C57.19,136.63 59.51,135.98 59.75,135.25 C60.07,134.29 57.10,134.00 47.08,134.00 C39.89,134.00 34.00,134.40 34.00,134.89 C34.00,136.25 36.69,137.00 41.58,137.00 L 46.00 137.00 L 46.00 150.50 C46.00,161.83 46.24,164.00 47.50,164.00 C48.76,164.00 49.00,161.84 49.00,150.55 ZM 68.00 157.50 L 68.00 151.00 L 72.00 151.00 C76.64,151.00 78.41,152.47 82.00,159.26 C83.37,161.87 85.06,164.00 85.75,164.00 C87.68,164.00 87.23,161.98 84.00,156.13 L 81.04 150.76 L 83.40 148.90 C86.22,146.68 87.15,142.74 85.79,138.82 C84.37,134.77 82.28,134.00 72.60,134.00 L 64.07 134.00 L 64.06 148.14 C64.06,155.92 64.30,162.67 64.59,163.14 C64.88,163.61 65.77,164.00 66.56,164.00 C67.67,164.00 68.00,162.49 68.00,157.50 ZM 113.00 162.50 C113.00,161.29 111.44,161.00 105.00,161.00 L 97.00 161.00 L 97.00 155.50 L 97.00 150.00 L 104.50 150.00 C110.50,150.00 112.00,149.70 112.00,148.50 C112.00,147.30 110.50,147.00 104.50,147.00 L 97.00 147.00 L 97.00 142.04 L 97.00 137.08 L 104.67 136.79 C109.82,136.60 112.48,136.08 112.77,135.21 C113.10,134.21 111.02,133.99 103.35,134.21 L 93.50 134.50 L 93.18 146.91 C92.72,164.98 92.13,164.00 103.52,164.00 C111.28,164.00 113.00,163.73 113.00,162.50 ZM 138.00 162.50 C138.00,161.29 136.44,161.00 130.00,161.00 L 122.00 161.00 L 122.00 155.50 L 122.00 150.00 L 129.50 150.00 C135.50,150.00 137.00,149.70 137.00,148.50 C137.00,147.30 135.50,147.00 129.50,147.00 L 122.00 147.00 L 122.00 142.04 L 122.00 137.08 L 129.67 136.79 C134.70,136.60 137.48,136.07 137.75,135.25 C138.06,134.31 135.80,134.00 128.58,134.00 L 119.00 134.00 L 119.00 149.00 L 119.00 164.00 L 128.50 164.00 C136.28,164.00 138.00,163.73 138.00,162.50 ZM 154.00 150.55 L 154.00 137.10 L 159.17 136.80 C162.19,136.63 164.51,135.98 164.75,135.25 C165.07,134.29 162.10,134.00 152.08,134.00 C144.89,134.00 139.00,134.40 139.00,134.89 C139.00,136.25 141.69,137.00 146.58,137.00 L 151.00 137.00 L 151.00 150.50 C151.00,161.83 151.24,164.00 152.50,164.00 C153.76,164.00 154.00,161.84 154.00,150.55 ZM 245.00 157.50 L 245.00 151.00 L 249.45 151.00 C253.30,151.00 254.22,151.43 256.33,154.25 C257.67,156.04 259.50,158.96 260.41,160.75 C261.31,162.54 262.71,164.00 263.53,164.00 C264.34,164.00 265.00,163.76 265.00,163.46 C265.00,162.37 260.72,154.44 259.13,152.60 C257.80,151.06 257.75,150.62 258.88,150.23 C264.00,148.45 265.60,141.30 261.93,136.63 C259.96,134.14 259.38,134.00 250.93,134.00 L 242.00 134.00 L 242.00 149.00 C242.00,161.67 242.23,164.00 243.50,164.00 C244.68,164.00 245.00,162.61 245.00,157.50 ZM 290.00 162.50 C290.00,161.29 288.44,161.00 282.00,161.00 L 274.00 161.00 L 274.00 155.54 L 274.00 150.08 L 281.51 149.79 C285.65,149.63 289.01,149.05 289.01,148.50 C289.01,147.95 285.65,147.37 281.51,147.21 L 274.00 146.92 L 274.00 142.00 L 274.00 137.08 L 281.67 136.79 C286.70,136.60 289.48,136.07 289.75,135.25 C290.06,134.31 287.80,134.00 280.58,134.00 L 271.00 134.00 L 271.00 148.33 C271.00,156.22 271.30,162.97 271.67,163.33 C272.03,163.70 276.31,164.00 281.17,164.00 C288.35,164.00 290.00,163.72 290.00,162.50 ZM 160.89 112.09 C162.37,111.15 161.15,105.04 156.85,91.78 C154.42,84.26 154.52,82.70 157.16,87.00 L 159.32 90.50 L 160.60 87.50 C161.31,85.85 162.15,82.47 162.47,80.00 C163.57,71.46 166.38,60.50 167.75,59.35 C169.40,57.95 178.71,57.73 179.54,59.06 C179.86,59.58 180.74,60.00 181.49,60.00 C182.94,60.00 182.73,58.92 179.67,50.55 C177.75,45.31 178.42,44.00 182.99,44.00 C186.14,44.00 187.38,43.32 190.48,39.89 C197.21,32.44 198.94,23.69 194.97,17.19 C192.95,13.88 187.86,11.00 184.02,11.00 C182.89,11.00 181.14,10.48 180.12,9.84 C177.51,8.21 175.00,9.48 175.00,12.43 C175.00,15.27 176.81,16.50 182.52,17.56 C187.03,18.39 187.96,19.35 187.98,23.23 C188.01,27.34 184.02,29.61 179.20,28.22 C177.17,27.64 171.34,26.58 166.25,25.89 C155.21,24.37 152.21,25.10 149.81,29.89 C147.02,35.46 143.26,38.70 138.90,39.29 C133.17,40.06 116.45,46.75 112.99,49.67 C111.36,51.03 108.62,55.11 106.89,58.73 C103.47,65.90 103.39,68.61 106.19,83.00 C106.88,86.57 107.44,94.56 107.42,100.75 L 107.39 112.00 L 111.20 112.00 L 115.00 112.00 L 115.00 102.12 C115.00,85.86 117.74,81.97 127.71,84.04 C130.80,84.68 134.94,84.95 136.91,84.63 C139.40,84.23 140.04,84.35 139.00,85.01 C138.18,85.54 133.72,85.98 129.10,85.98 L 120.71 86.00 L 123.35 88.45 C126.47,91.34 126.66,93.41 124.16,97.50 C123.16,99.15 122.04,102.36 121.67,104.63 L 121.01 108.77 L 125.56 109.91 C128.06,110.54 130.48,110.82 130.93,110.54 C131.39,110.26 131.54,108.08 131.27,105.70 C130.61,99.87 134.53,92.08 140.17,87.99 C142.44,86.35 144.62,85.00 145.02,85.00 C145.77,85.00 150.00,95.90 150.00,97.85 C150.00,98.48 149.48,98.89 148.85,98.75 C147.62,98.48 143.76,109.80 144.61,111.18 C145.59,112.77 147.78,111.97 148.51,109.75 L 149.25 107.50 L 149.69 109.69 C149.94,110.95 151.05,112.06 152.31,112.30 C156.24,113.07 159.47,112.99 160.89,112.09 ZM 214.96 158.96 C206.30,150.30 212.49,134.37 223.70,136.47 C232.10,138.05 234.55,151.50 227.76,158.75 C224.93,161.77 217.89,161.89 214.96,158.96 ZM 68.00 142.50 L 68.00 137.00 L 74.30 137.00 C81.27,137.00 83.00,138.02 83.00,142.13 C83.00,146.48 80.64,148.00 73.93,148.00 L 68.00 148.00 L 68.00 142.50 ZM 245.00 142.45 L 245.00 136.91 L 251.72 137.20 C257.79,137.47 258.57,137.75 259.91,140.13 C261.23,142.50 261.20,143.04 259.67,145.38 C258.11,147.76 257.36,148.00 251.48,148.00 L 245.00 148.00 L 245.00 142.45 ZM 142.59 57.84 C141.51,54.36 141.26,50.15 141.91,46.50 C142.60,42.61 142.65,42.69 143.40,49.33 L 144.18 56.16 L 150.59 55.83 C157.10,55.50 159.27,56.41 154.25,57.37 C145.50,59.04 142.99,59.14 142.59,57.84 Z" fill="rgb(253,254,254)"/>
</g>
</svg>